<mxfile host="Electron" agent="Mozilla/5.0 (Windows NT 10.0; Win64; x64) AppleWebKit/537.36 (KHTML, like Gecko) draw.io/26.2.2 Chrome/134.0.6998.178 Electron/35.1.2 Safari/537.36" version="26.2.2">
  <diagram name="第 1 页" id="QOxALYG1NZeg0La0y2ua">
    <mxGraphModel dx="826" dy="965" grid="1" gridSize="10" guides="1" tooltips="1" connect="1" arrows="1" fold="1" page="1" pageScale="1" pageWidth="827" pageHeight="1169" math="0" shadow="0">
      <root>
        <mxCell id="0" />
        <mxCell id="1" parent="0" />
        <mxCell id="rIGNumGmygnHjvv-tgh9-2" value="&lt;ol&gt;&lt;li&gt;&lt;span style=&quot;background-color: transparent; color: light-dark(rgb(0, 0, 0), rgb(255, 255, 255));&quot;&gt;float a =.2;&lt;/span&gt;&lt;/li&gt;&lt;li&gt;&lt;span style=&quot;background-color: transparent; color: light-dark(rgb(0, 0, 0), rgb(255, 255, 255));&quot;&gt;int b = 0x2;&lt;/span&gt;&lt;/li&gt;&lt;li&gt;&lt;span style=&quot;background-color: transparent; color: light-dark(rgb(0, 0, 0), rgb(255, 255, 255));&quot;&gt;int main(){&lt;/span&gt;&lt;/li&gt;&lt;li&gt;&lt;span style=&quot;background-color: transparent; color: light-dark(rgb(0, 0, 0), rgb(255, 255, 255));&quot;&gt;&amp;nbsp; &amp;nbsp; if(b==2){&lt;/span&gt;&lt;/li&gt;&lt;li&gt;&lt;span style=&quot;background-color: transparent; color: light-dark(rgb(0, 0, 0), rgb(255, 255, 255));&quot;&gt;&amp;nbsp; &amp;nbsp; &amp;nbsp; &amp;nbsp; a = 0.1;&lt;/span&gt;&lt;/li&gt;&lt;li&gt;&lt;span style=&quot;background-color: transparent; color: light-dark(rgb(0, 0, 0), rgb(255, 255, 255));&quot;&gt;&amp;nbsp; &amp;nbsp; }&lt;/span&gt;&lt;/li&gt;&lt;li&gt;&lt;span style=&quot;background-color: transparent; color: light-dark(rgb(0, 0, 0), rgb(255, 255, 255));&quot;&gt;}&lt;/span&gt;&lt;/li&gt;&lt;/ol&gt;" style="rounded=1;whiteSpace=wrap;html=1;align=left;fillColor=#fff2cc;strokeColor=#d6b656;" vertex="1" parent="1">
          <mxGeometry x="40" y="40" width="120" height="130" as="geometry" />
        </mxCell>
        <mxCell id="rIGNumGmygnHjvv-tgh9-7" style="rounded=0;orthogonalLoop=1;jettySize=auto;html=1;exitX=0.5;exitY=1;exitDx=0;exitDy=0;entryX=0.5;entryY=0;entryDx=0;entryDy=0;" edge="1" parent="1" source="rIGNumGmygnHjvv-tgh9-3" target="rIGNumGmygnHjvv-tgh9-5">
          <mxGeometry relative="1" as="geometry" />
        </mxCell>
        <mxCell id="rIGNumGmygnHjvv-tgh9-8" style="rounded=0;orthogonalLoop=1;jettySize=auto;html=1;exitX=0.5;exitY=1;exitDx=0;exitDy=0;entryX=0;entryY=0.5;entryDx=0;entryDy=0;" edge="1" parent="1" source="rIGNumGmygnHjvv-tgh9-3" target="rIGNumGmygnHjvv-tgh9-6">
          <mxGeometry relative="1" as="geometry" />
        </mxCell>
        <mxCell id="rIGNumGmygnHjvv-tgh9-3" value="Comp&lt;br&gt;Unit" style="ellipse;whiteSpace=wrap;html=1;fillColor=#d5e8d4;strokeColor=#82b366;" vertex="1" parent="1">
          <mxGeometry x="320" y="40" width="40" height="40" as="geometry" />
        </mxCell>
        <mxCell id="rIGNumGmygnHjvv-tgh9-5" value="&lt;ol&gt;&lt;li&gt;&lt;span style=&quot;background-color: transparent; color: light-dark(rgb(0, 0, 0), rgb(255, 255, 255));&quot;&gt;float a =.2;&lt;/span&gt;&lt;/li&gt;&lt;/ol&gt;" style="rounded=1;whiteSpace=wrap;html=1;align=left;fillColor=#fff2cc;strokeColor=#d6b656;" vertex="1" parent="1">
          <mxGeometry x="200" y="120" width="120" height="40" as="geometry" />
        </mxCell>
        <mxCell id="rIGNumGmygnHjvv-tgh9-6" value="&lt;ol&gt;&lt;li&gt;&lt;span style=&quot;background-color: transparent; color: light-dark(rgb(0, 0, 0), rgb(255, 255, 255));&quot;&gt;int b = 0x2;&lt;/span&gt;&lt;/li&gt;&lt;li&gt;&lt;span style=&quot;background-color: transparent; color: light-dark(rgb(0, 0, 0), rgb(255, 255, 255));&quot;&gt;int main(){&lt;/span&gt;&lt;/li&gt;&lt;li&gt;&lt;span style=&quot;background-color: transparent; color: light-dark(rgb(0, 0, 0), rgb(255, 255, 255));&quot;&gt;&amp;nbsp; &amp;nbsp; if(b==2){&lt;/span&gt;&lt;/li&gt;&lt;li&gt;&lt;span style=&quot;background-color: transparent; color: light-dark(rgb(0, 0, 0), rgb(255, 255, 255));&quot;&gt;&amp;nbsp; &amp;nbsp; &amp;nbsp; &amp;nbsp; a = 0.1;&lt;/span&gt;&lt;/li&gt;&lt;li&gt;&lt;span style=&quot;background-color: transparent; color: light-dark(rgb(0, 0, 0), rgb(255, 255, 255));&quot;&gt;&amp;nbsp; &amp;nbsp; }&lt;/span&gt;&lt;/li&gt;&lt;li&gt;&lt;span style=&quot;background-color: transparent; color: light-dark(rgb(0, 0, 0), rgb(255, 255, 255));&quot;&gt;}&lt;/span&gt;&lt;/li&gt;&lt;/ol&gt;" style="rounded=1;whiteSpace=wrap;html=1;align=left;fillColor=#fff2cc;strokeColor=#d6b656;" vertex="1" parent="1">
          <mxGeometry x="360" y="80" width="120" height="100" as="geometry" />
        </mxCell>
        <mxCell id="rIGNumGmygnHjvv-tgh9-9" style="rounded=0;orthogonalLoop=1;jettySize=auto;html=1;exitX=0.5;exitY=1;exitDx=0;exitDy=0;entryX=0.5;entryY=0;entryDx=0;entryDy=0;" edge="1" parent="1" source="rIGNumGmygnHjvv-tgh9-11" target="rIGNumGmygnHjvv-tgh9-14">
          <mxGeometry relative="1" as="geometry">
            <mxPoint x="580" y="120" as="targetPoint" />
          </mxGeometry>
        </mxCell>
        <mxCell id="rIGNumGmygnHjvv-tgh9-10" style="rounded=0;orthogonalLoop=1;jettySize=auto;html=1;exitX=0.5;exitY=1;exitDx=0;exitDy=0;entryX=0;entryY=0.5;entryDx=0;entryDy=0;" edge="1" parent="1" source="rIGNumGmygnHjvv-tgh9-11" target="rIGNumGmygnHjvv-tgh9-13">
          <mxGeometry relative="1" as="geometry" />
        </mxCell>
        <mxCell id="rIGNumGmygnHjvv-tgh9-11" value="Comp&lt;br&gt;Unit" style="ellipse;whiteSpace=wrap;html=1;" vertex="1" parent="1">
          <mxGeometry x="640" y="40" width="40" height="40" as="geometry" />
        </mxCell>
        <mxCell id="rIGNumGmygnHjvv-tgh9-13" value="&lt;ol&gt;&lt;li&gt;&lt;span style=&quot;background-color: transparent; color: light-dark(rgb(0, 0, 0), rgb(255, 255, 255));&quot;&gt;int b = 0x2;&lt;/span&gt;&lt;/li&gt;&lt;li&gt;&lt;span style=&quot;background-color: transparent; color: light-dark(rgb(0, 0, 0), rgb(255, 255, 255));&quot;&gt;int main(){&lt;/span&gt;&lt;/li&gt;&lt;li&gt;&lt;span style=&quot;background-color: transparent; color: light-dark(rgb(0, 0, 0), rgb(255, 255, 255));&quot;&gt;&amp;nbsp; &amp;nbsp; if(b==2){&lt;/span&gt;&lt;/li&gt;&lt;li&gt;&lt;span style=&quot;background-color: transparent; color: light-dark(rgb(0, 0, 0), rgb(255, 255, 255));&quot;&gt;&amp;nbsp; &amp;nbsp; &amp;nbsp; &amp;nbsp; a = 0.1;&lt;/span&gt;&lt;/li&gt;&lt;li&gt;&lt;span style=&quot;background-color: transparent; color: light-dark(rgb(0, 0, 0), rgb(255, 255, 255));&quot;&gt;&amp;nbsp; &amp;nbsp; }&lt;/span&gt;&lt;/li&gt;&lt;li&gt;&lt;span style=&quot;background-color: transparent; color: light-dark(rgb(0, 0, 0), rgb(255, 255, 255));&quot;&gt;}&lt;/span&gt;&lt;/li&gt;&lt;/ol&gt;" style="rounded=1;whiteSpace=wrap;html=1;align=left;fillColor=#fff2cc;strokeColor=#d6b656;" vertex="1" parent="1">
          <mxGeometry x="680" y="80" width="120" height="100" as="geometry" />
        </mxCell>
        <mxCell id="rIGNumGmygnHjvv-tgh9-16" style="edgeStyle=orthogonalEdgeStyle;rounded=0;orthogonalLoop=1;jettySize=auto;html=1;exitX=0.5;exitY=1;exitDx=0;exitDy=0;entryX=0.5;entryY=0;entryDx=0;entryDy=0;" edge="1" parent="1" source="rIGNumGmygnHjvv-tgh9-14" target="rIGNumGmygnHjvv-tgh9-15">
          <mxGeometry relative="1" as="geometry" />
        </mxCell>
        <mxCell id="rIGNumGmygnHjvv-tgh9-14" value="Decl" style="ellipse;whiteSpace=wrap;html=1;aspect=fixed;fillColor=#d5e8d4;strokeColor=#82b366;" vertex="1" parent="1">
          <mxGeometry x="560" y="120" width="40" height="40" as="geometry" />
        </mxCell>
        <mxCell id="rIGNumGmygnHjvv-tgh9-15" value="&lt;ol&gt;&lt;li&gt;&lt;span style=&quot;background-color: transparent; color: light-dark(rgb(0, 0, 0), rgb(255, 255, 255));&quot;&gt;float a =.2;&lt;/span&gt;&lt;/li&gt;&lt;/ol&gt;" style="rounded=1;whiteSpace=wrap;html=1;align=left;fillColor=#fff2cc;strokeColor=#d6b656;" vertex="1" parent="1">
          <mxGeometry x="520" y="200" width="120" height="40" as="geometry" />
        </mxCell>
        <mxCell id="rIGNumGmygnHjvv-tgh9-17" style="rounded=0;orthogonalLoop=1;jettySize=auto;html=1;exitX=0.5;exitY=1;exitDx=0;exitDy=0;entryX=0.5;entryY=0;entryDx=0;entryDy=0;" edge="1" parent="1" source="rIGNumGmygnHjvv-tgh9-19" target="rIGNumGmygnHjvv-tgh9-22">
          <mxGeometry relative="1" as="geometry">
            <mxPoint x="900" y="120" as="targetPoint" />
          </mxGeometry>
        </mxCell>
        <mxCell id="rIGNumGmygnHjvv-tgh9-18" style="rounded=0;orthogonalLoop=1;jettySize=auto;html=1;exitX=0.5;exitY=1;exitDx=0;exitDy=0;entryX=0;entryY=0.5;entryDx=0;entryDy=0;" edge="1" parent="1" source="rIGNumGmygnHjvv-tgh9-19" target="rIGNumGmygnHjvv-tgh9-20">
          <mxGeometry relative="1" as="geometry" />
        </mxCell>
        <mxCell id="rIGNumGmygnHjvv-tgh9-19" value="Comp&lt;br&gt;Unit" style="ellipse;whiteSpace=wrap;html=1;" vertex="1" parent="1">
          <mxGeometry x="960" y="40" width="40" height="40" as="geometry" />
        </mxCell>
        <mxCell id="rIGNumGmygnHjvv-tgh9-20" value="&lt;ol&gt;&lt;li&gt;&lt;span style=&quot;background-color: transparent; color: light-dark(rgb(0, 0, 0), rgb(255, 255, 255));&quot;&gt;int b = 0x2;&lt;/span&gt;&lt;/li&gt;&lt;li&gt;&lt;span style=&quot;background-color: transparent; color: light-dark(rgb(0, 0, 0), rgb(255, 255, 255));&quot;&gt;int main(){&lt;/span&gt;&lt;/li&gt;&lt;li&gt;&lt;span style=&quot;background-color: transparent; color: light-dark(rgb(0, 0, 0), rgb(255, 255, 255));&quot;&gt;&amp;nbsp; &amp;nbsp; if(b==2){&lt;/span&gt;&lt;/li&gt;&lt;li&gt;&lt;span style=&quot;background-color: transparent; color: light-dark(rgb(0, 0, 0), rgb(255, 255, 255));&quot;&gt;&amp;nbsp; &amp;nbsp; &amp;nbsp; &amp;nbsp; a = 0.1;&lt;/span&gt;&lt;/li&gt;&lt;li&gt;&lt;span style=&quot;background-color: transparent; color: light-dark(rgb(0, 0, 0), rgb(255, 255, 255));&quot;&gt;&amp;nbsp; &amp;nbsp; }&lt;/span&gt;&lt;/li&gt;&lt;li&gt;&lt;span style=&quot;background-color: transparent; color: light-dark(rgb(0, 0, 0), rgb(255, 255, 255));&quot;&gt;}&lt;/span&gt;&lt;/li&gt;&lt;/ol&gt;" style="rounded=1;whiteSpace=wrap;html=1;align=left;fillColor=#fff2cc;strokeColor=#d6b656;" vertex="1" parent="1">
          <mxGeometry x="1000" y="80" width="120" height="100" as="geometry" />
        </mxCell>
        <mxCell id="rIGNumGmygnHjvv-tgh9-21" style="edgeStyle=orthogonalEdgeStyle;rounded=0;orthogonalLoop=1;jettySize=auto;html=1;exitX=0.5;exitY=1;exitDx=0;exitDy=0;entryX=0.5;entryY=0;entryDx=0;entryDy=0;" edge="1" parent="1" source="rIGNumGmygnHjvv-tgh9-22" target="rIGNumGmygnHjvv-tgh9-24">
          <mxGeometry relative="1" as="geometry">
            <mxPoint x="900" y="200" as="targetPoint" />
          </mxGeometry>
        </mxCell>
        <mxCell id="rIGNumGmygnHjvv-tgh9-22" value="Decl" style="ellipse;whiteSpace=wrap;html=1;aspect=fixed;" vertex="1" parent="1">
          <mxGeometry x="880" y="120" width="40" height="40" as="geometry" />
        </mxCell>
        <mxCell id="rIGNumGmygnHjvv-tgh9-26" style="edgeStyle=orthogonalEdgeStyle;rounded=0;orthogonalLoop=1;jettySize=auto;html=1;exitX=0.5;exitY=1;exitDx=0;exitDy=0;entryX=0.5;entryY=0;entryDx=0;entryDy=0;" edge="1" parent="1" source="rIGNumGmygnHjvv-tgh9-24" target="rIGNumGmygnHjvv-tgh9-25">
          <mxGeometry relative="1" as="geometry" />
        </mxCell>
        <mxCell id="rIGNumGmygnHjvv-tgh9-24" value="Var&lt;div&gt;Decl&lt;/div&gt;" style="ellipse;whiteSpace=wrap;html=1;fillColor=#d5e8d4;strokeColor=#82b366;" vertex="1" parent="1">
          <mxGeometry x="880" y="200" width="40" height="40" as="geometry" />
        </mxCell>
        <mxCell id="rIGNumGmygnHjvv-tgh9-25" value="&lt;ol&gt;&lt;li&gt;&lt;span style=&quot;background-color: transparent; color: light-dark(rgb(0, 0, 0), rgb(255, 255, 255));&quot;&gt;float a =.2;&lt;/span&gt;&lt;/li&gt;&lt;/ol&gt;" style="rounded=1;whiteSpace=wrap;html=1;align=left;fillColor=#fff2cc;strokeColor=#d6b656;" vertex="1" parent="1">
          <mxGeometry x="840" y="280" width="120" height="40" as="geometry" />
        </mxCell>
        <mxCell id="rIGNumGmygnHjvv-tgh9-27" style="rounded=0;orthogonalLoop=1;jettySize=auto;html=1;exitX=0.5;exitY=1;exitDx=0;exitDy=0;entryX=0.5;entryY=0;entryDx=0;entryDy=0;" edge="1" parent="1" source="rIGNumGmygnHjvv-tgh9-29" target="rIGNumGmygnHjvv-tgh9-32">
          <mxGeometry relative="1" as="geometry">
            <mxPoint x="1260" y="90" as="targetPoint" />
          </mxGeometry>
        </mxCell>
        <mxCell id="rIGNumGmygnHjvv-tgh9-28" style="rounded=0;orthogonalLoop=1;jettySize=auto;html=1;exitX=0.5;exitY=1;exitDx=0;exitDy=0;entryX=0;entryY=0.5;entryDx=0;entryDy=0;" edge="1" parent="1" source="rIGNumGmygnHjvv-tgh9-29" target="rIGNumGmygnHjvv-tgh9-30">
          <mxGeometry relative="1" as="geometry" />
        </mxCell>
        <mxCell id="rIGNumGmygnHjvv-tgh9-29" value="Comp&lt;br&gt;Unit" style="ellipse;whiteSpace=wrap;html=1;fillColor=#d5e8d4;strokeColor=#82b366;" vertex="1" parent="1">
          <mxGeometry x="1320" y="10" width="40" height="40" as="geometry" />
        </mxCell>
        <mxCell id="rIGNumGmygnHjvv-tgh9-30" value="&lt;ol&gt;&lt;li&gt;&lt;span style=&quot;background-color: transparent; color: light-dark(rgb(0, 0, 0), rgb(255, 255, 255));&quot;&gt;int b = 0x2;&lt;/span&gt;&lt;/li&gt;&lt;li&gt;&lt;span style=&quot;background-color: transparent; color: light-dark(rgb(0, 0, 0), rgb(255, 255, 255));&quot;&gt;int main(){&lt;/span&gt;&lt;/li&gt;&lt;li&gt;&lt;span style=&quot;background-color: transparent; color: light-dark(rgb(0, 0, 0), rgb(255, 255, 255));&quot;&gt;&amp;nbsp; &amp;nbsp; if(b==2){&lt;/span&gt;&lt;/li&gt;&lt;li&gt;&lt;span style=&quot;background-color: transparent; color: light-dark(rgb(0, 0, 0), rgb(255, 255, 255));&quot;&gt;&amp;nbsp; &amp;nbsp; &amp;nbsp; &amp;nbsp; a = 0.1;&lt;/span&gt;&lt;/li&gt;&lt;li&gt;&lt;span style=&quot;background-color: transparent; color: light-dark(rgb(0, 0, 0), rgb(255, 255, 255));&quot;&gt;&amp;nbsp; &amp;nbsp; }&lt;/span&gt;&lt;/li&gt;&lt;li&gt;&lt;span style=&quot;background-color: transparent; color: light-dark(rgb(0, 0, 0), rgb(255, 255, 255));&quot;&gt;}&lt;/span&gt;&lt;/li&gt;&lt;/ol&gt;" style="rounded=1;whiteSpace=wrap;html=1;align=left;fillColor=#fff2cc;strokeColor=#d6b656;" vertex="1" parent="1">
          <mxGeometry x="1360" y="50" width="120" height="100" as="geometry" />
        </mxCell>
        <mxCell id="rIGNumGmygnHjvv-tgh9-31" style="edgeStyle=orthogonalEdgeStyle;rounded=0;orthogonalLoop=1;jettySize=auto;html=1;exitX=0.5;exitY=1;exitDx=0;exitDy=0;entryX=0.5;entryY=0;entryDx=0;entryDy=0;" edge="1" parent="1" source="rIGNumGmygnHjvv-tgh9-32" target="rIGNumGmygnHjvv-tgh9-34">
          <mxGeometry relative="1" as="geometry">
            <mxPoint x="1260" y="170" as="targetPoint" />
          </mxGeometry>
        </mxCell>
        <mxCell id="rIGNumGmygnHjvv-tgh9-32" value="Decl" style="ellipse;whiteSpace=wrap;html=1;aspect=fixed;" vertex="1" parent="1">
          <mxGeometry x="1240" y="90" width="40" height="40" as="geometry" />
        </mxCell>
        <mxCell id="rIGNumGmygnHjvv-tgh9-33" style="edgeStyle=orthogonalEdgeStyle;rounded=0;orthogonalLoop=1;jettySize=auto;html=1;exitX=0.5;exitY=1;exitDx=0;exitDy=0;entryX=0.5;entryY=0;entryDx=0;entryDy=0;" edge="1" parent="1" source="rIGNumGmygnHjvv-tgh9-34">
          <mxGeometry relative="1" as="geometry">
            <mxPoint x="1260" y="250" as="targetPoint" />
          </mxGeometry>
        </mxCell>
        <mxCell id="rIGNumGmygnHjvv-tgh9-40" style="rounded=0;orthogonalLoop=1;jettySize=auto;html=1;exitX=0;exitY=1;exitDx=0;exitDy=0;entryX=0.5;entryY=0;entryDx=0;entryDy=0;" edge="1" parent="1" source="rIGNumGmygnHjvv-tgh9-34" target="rIGNumGmygnHjvv-tgh9-37">
          <mxGeometry relative="1" as="geometry" />
        </mxCell>
        <mxCell id="rIGNumGmygnHjvv-tgh9-41" style="rounded=0;orthogonalLoop=1;jettySize=auto;html=1;exitX=1;exitY=1;exitDx=0;exitDy=0;entryX=0.5;entryY=0;entryDx=0;entryDy=0;" edge="1" parent="1" source="rIGNumGmygnHjvv-tgh9-34" target="rIGNumGmygnHjvv-tgh9-39">
          <mxGeometry relative="1" as="geometry" />
        </mxCell>
        <mxCell id="rIGNumGmygnHjvv-tgh9-34" value="Var&lt;div&gt;Decl&lt;/div&gt;" style="ellipse;whiteSpace=wrap;html=1;" vertex="1" parent="1">
          <mxGeometry x="1240" y="170" width="40" height="40" as="geometry" />
        </mxCell>
        <mxCell id="rIGNumGmygnHjvv-tgh9-44" style="rounded=0;orthogonalLoop=1;jettySize=auto;html=1;exitX=0.5;exitY=1;exitDx=0;exitDy=0;entryX=0.5;entryY=0;entryDx=0;entryDy=0;" edge="1" parent="1" source="rIGNumGmygnHjvv-tgh9-37" target="rIGNumGmygnHjvv-tgh9-42">
          <mxGeometry relative="1" as="geometry" />
        </mxCell>
        <mxCell id="rIGNumGmygnHjvv-tgh9-37" value="BType" style="ellipse;whiteSpace=wrap;html=1;" vertex="1" parent="1">
          <mxGeometry x="1200" y="250" width="40" height="40" as="geometry" />
        </mxCell>
        <mxCell id="rIGNumGmygnHjvv-tgh9-45" style="edgeStyle=orthogonalEdgeStyle;rounded=0;orthogonalLoop=1;jettySize=auto;html=1;exitX=0.5;exitY=1;exitDx=0;exitDy=0;entryX=0.5;entryY=0;entryDx=0;entryDy=0;" edge="1" parent="1" source="rIGNumGmygnHjvv-tgh9-38" target="rIGNumGmygnHjvv-tgh9-43">
          <mxGeometry relative="1" as="geometry" />
        </mxCell>
        <mxCell id="rIGNumGmygnHjvv-tgh9-38" value="Var&lt;br&gt;Def" style="ellipse;whiteSpace=wrap;html=1;" vertex="1" parent="1">
          <mxGeometry x="1240" y="250" width="40" height="40" as="geometry" />
        </mxCell>
        <mxCell id="rIGNumGmygnHjvv-tgh9-39" value="Term&lt;div&gt;;&lt;/div&gt;" style="ellipse;whiteSpace=wrap;html=1;fillColor=#f8cecc;strokeColor=#b85450;" vertex="1" parent="1">
          <mxGeometry x="1280" y="250" width="40" height="40" as="geometry" />
        </mxCell>
        <mxCell id="rIGNumGmygnHjvv-tgh9-42" value="&lt;span style=&quot;background-color: transparent; color: light-dark(rgb(0, 0, 0), rgb(255, 255, 255));&quot;&gt;float&lt;/span&gt;" style="rounded=1;whiteSpace=wrap;html=1;align=left;fillColor=#fff2cc;strokeColor=#d6b656;" vertex="1" parent="1">
          <mxGeometry x="1160" y="330" width="40" height="40" as="geometry" />
        </mxCell>
        <mxCell id="rIGNumGmygnHjvv-tgh9-43" value="&lt;span style=&quot;background-color: transparent; color: light-dark(rgb(0, 0, 0), rgb(255, 255, 255));&quot;&gt;a = .2&lt;/span&gt;" style="rounded=1;whiteSpace=wrap;html=1;align=left;fillColor=#fff2cc;strokeColor=#d6b656;" vertex="1" parent="1">
          <mxGeometry x="1240" y="330" width="40" height="40" as="geometry" />
        </mxCell>
        <mxCell id="rIGNumGmygnHjvv-tgh9-46" style="rounded=0;orthogonalLoop=1;jettySize=auto;html=1;exitX=0.5;exitY=1;exitDx=0;exitDy=0;entryX=0.5;entryY=0;entryDx=0;entryDy=0;" edge="1" parent="1" source="rIGNumGmygnHjvv-tgh9-48" target="rIGNumGmygnHjvv-tgh9-51">
          <mxGeometry relative="1" as="geometry">
            <mxPoint x="1620" y="90" as="targetPoint" />
          </mxGeometry>
        </mxCell>
        <mxCell id="rIGNumGmygnHjvv-tgh9-47" style="rounded=0;orthogonalLoop=1;jettySize=auto;html=1;exitX=0.5;exitY=1;exitDx=0;exitDy=0;entryX=0;entryY=0.5;entryDx=0;entryDy=0;" edge="1" parent="1" source="rIGNumGmygnHjvv-tgh9-48" target="rIGNumGmygnHjvv-tgh9-49">
          <mxGeometry relative="1" as="geometry" />
        </mxCell>
        <mxCell id="rIGNumGmygnHjvv-tgh9-48" value="Comp&lt;br&gt;Unit" style="ellipse;whiteSpace=wrap;html=1;fillColor=#d5e8d4;strokeColor=#82b366;" vertex="1" parent="1">
          <mxGeometry x="1680" y="10" width="40" height="40" as="geometry" />
        </mxCell>
        <mxCell id="rIGNumGmygnHjvv-tgh9-49" value="&lt;ol&gt;&lt;li&gt;&lt;span style=&quot;background-color: transparent; color: light-dark(rgb(0, 0, 0), rgb(255, 255, 255));&quot;&gt;int b = 0x2;&lt;/span&gt;&lt;/li&gt;&lt;li&gt;&lt;span style=&quot;background-color: transparent; color: light-dark(rgb(0, 0, 0), rgb(255, 255, 255));&quot;&gt;int main(){&lt;/span&gt;&lt;/li&gt;&lt;li&gt;&lt;span style=&quot;background-color: transparent; color: light-dark(rgb(0, 0, 0), rgb(255, 255, 255));&quot;&gt;&amp;nbsp; &amp;nbsp; if(b==2){&lt;/span&gt;&lt;/li&gt;&lt;li&gt;&lt;span style=&quot;background-color: transparent; color: light-dark(rgb(0, 0, 0), rgb(255, 255, 255));&quot;&gt;&amp;nbsp; &amp;nbsp; &amp;nbsp; &amp;nbsp; a = 0.1;&lt;/span&gt;&lt;/li&gt;&lt;li&gt;&lt;span style=&quot;background-color: transparent; color: light-dark(rgb(0, 0, 0), rgb(255, 255, 255));&quot;&gt;&amp;nbsp; &amp;nbsp; }&lt;/span&gt;&lt;/li&gt;&lt;li&gt;&lt;span style=&quot;background-color: transparent; color: light-dark(rgb(0, 0, 0), rgb(255, 255, 255));&quot;&gt;}&lt;/span&gt;&lt;/li&gt;&lt;/ol&gt;" style="rounded=1;whiteSpace=wrap;html=1;align=left;fillColor=#fff2cc;strokeColor=#d6b656;" vertex="1" parent="1">
          <mxGeometry x="1720" y="50" width="120" height="100" as="geometry" />
        </mxCell>
        <mxCell id="rIGNumGmygnHjvv-tgh9-50" style="edgeStyle=orthogonalEdgeStyle;rounded=0;orthogonalLoop=1;jettySize=auto;html=1;exitX=0.5;exitY=1;exitDx=0;exitDy=0;entryX=0.5;entryY=0;entryDx=0;entryDy=0;" edge="1" parent="1" source="rIGNumGmygnHjvv-tgh9-51" target="rIGNumGmygnHjvv-tgh9-55">
          <mxGeometry relative="1" as="geometry">
            <mxPoint x="1620" y="170" as="targetPoint" />
          </mxGeometry>
        </mxCell>
        <mxCell id="rIGNumGmygnHjvv-tgh9-51" value="Decl" style="ellipse;whiteSpace=wrap;html=1;aspect=fixed;" vertex="1" parent="1">
          <mxGeometry x="1600" y="90" width="40" height="40" as="geometry" />
        </mxCell>
        <mxCell id="rIGNumGmygnHjvv-tgh9-52" style="edgeStyle=orthogonalEdgeStyle;rounded=0;orthogonalLoop=1;jettySize=auto;html=1;exitX=0.5;exitY=1;exitDx=0;exitDy=0;entryX=0.5;entryY=0;entryDx=0;entryDy=0;" edge="1" parent="1" source="rIGNumGmygnHjvv-tgh9-55">
          <mxGeometry relative="1" as="geometry">
            <mxPoint x="1620" y="250" as="targetPoint" />
          </mxGeometry>
        </mxCell>
        <mxCell id="rIGNumGmygnHjvv-tgh9-53" style="rounded=0;orthogonalLoop=1;jettySize=auto;html=1;exitX=0;exitY=1;exitDx=0;exitDy=0;entryX=0.5;entryY=0;entryDx=0;entryDy=0;" edge="1" parent="1" source="rIGNumGmygnHjvv-tgh9-55" target="rIGNumGmygnHjvv-tgh9-57">
          <mxGeometry relative="1" as="geometry" />
        </mxCell>
        <mxCell id="rIGNumGmygnHjvv-tgh9-54" style="rounded=0;orthogonalLoop=1;jettySize=auto;html=1;exitX=1;exitY=1;exitDx=0;exitDy=0;entryX=0.5;entryY=0;entryDx=0;entryDy=0;" edge="1" parent="1" source="rIGNumGmygnHjvv-tgh9-55" target="rIGNumGmygnHjvv-tgh9-60">
          <mxGeometry relative="1" as="geometry" />
        </mxCell>
        <mxCell id="rIGNumGmygnHjvv-tgh9-55" value="Var&lt;div&gt;Decl&lt;/div&gt;" style="ellipse;whiteSpace=wrap;html=1;" vertex="1" parent="1">
          <mxGeometry x="1600" y="170" width="40" height="40" as="geometry" />
        </mxCell>
        <mxCell id="rIGNumGmygnHjvv-tgh9-56" style="rounded=0;orthogonalLoop=1;jettySize=auto;html=1;exitX=0.5;exitY=1;exitDx=0;exitDy=0;entryX=0.5;entryY=0;entryDx=0;entryDy=0;" edge="1" parent="1" source="rIGNumGmygnHjvv-tgh9-57">
          <mxGeometry relative="1" as="geometry">
            <mxPoint x="1540" y="329.9999999999998" as="targetPoint" />
          </mxGeometry>
        </mxCell>
        <mxCell id="rIGNumGmygnHjvv-tgh9-57" value="BType" style="ellipse;whiteSpace=wrap;html=1;" vertex="1" parent="1">
          <mxGeometry x="1560" y="250" width="40" height="40" as="geometry" />
        </mxCell>
        <mxCell id="rIGNumGmygnHjvv-tgh9-69" style="rounded=0;orthogonalLoop=1;jettySize=auto;html=1;exitX=0;exitY=1;exitDx=0;exitDy=0;entryX=0.5;entryY=0;entryDx=0;entryDy=0;" edge="1" parent="1" source="rIGNumGmygnHjvv-tgh9-59" target="rIGNumGmygnHjvv-tgh9-65">
          <mxGeometry relative="1" as="geometry" />
        </mxCell>
        <mxCell id="rIGNumGmygnHjvv-tgh9-70" style="edgeStyle=orthogonalEdgeStyle;rounded=0;orthogonalLoop=1;jettySize=auto;html=1;exitX=0.5;exitY=1;exitDx=0;exitDy=0;entryX=0.5;entryY=0;entryDx=0;entryDy=0;" edge="1" parent="1" source="rIGNumGmygnHjvv-tgh9-59" target="rIGNumGmygnHjvv-tgh9-66">
          <mxGeometry relative="1" as="geometry" />
        </mxCell>
        <mxCell id="rIGNumGmygnHjvv-tgh9-71" style="rounded=0;orthogonalLoop=1;jettySize=auto;html=1;exitX=1;exitY=1;exitDx=0;exitDy=0;" edge="1" parent="1" source="rIGNumGmygnHjvv-tgh9-59" target="rIGNumGmygnHjvv-tgh9-67">
          <mxGeometry relative="1" as="geometry" />
        </mxCell>
        <mxCell id="rIGNumGmygnHjvv-tgh9-59" value="Var&lt;br&gt;Def" style="ellipse;whiteSpace=wrap;html=1;" vertex="1" parent="1">
          <mxGeometry x="1600" y="250" width="40" height="40" as="geometry" />
        </mxCell>
        <mxCell id="rIGNumGmygnHjvv-tgh9-60" value="Term&lt;div&gt;;&lt;/div&gt;" style="ellipse;whiteSpace=wrap;html=1;fillColor=#f8cecc;strokeColor=#b85450;" vertex="1" parent="1">
          <mxGeometry x="1640" y="250" width="40" height="40" as="geometry" />
        </mxCell>
        <mxCell id="rIGNumGmygnHjvv-tgh9-63" value="Term&lt;div&gt;float&lt;/div&gt;" style="ellipse;whiteSpace=wrap;html=1;fillColor=#f8cecc;strokeColor=#b85450;" vertex="1" parent="1">
          <mxGeometry x="1520" y="330" width="40" height="40" as="geometry" />
        </mxCell>
        <mxCell id="rIGNumGmygnHjvv-tgh9-65" value="Term&lt;div&gt;a&lt;/div&gt;" style="ellipse;whiteSpace=wrap;html=1;fillColor=#f8cecc;strokeColor=#b85450;" vertex="1" parent="1">
          <mxGeometry x="1560" y="330" width="40" height="40" as="geometry" />
        </mxCell>
        <mxCell id="rIGNumGmygnHjvv-tgh9-66" value="Term&lt;div&gt;=&lt;/div&gt;" style="ellipse;whiteSpace=wrap;html=1;fillColor=#f8cecc;strokeColor=#b85450;" vertex="1" parent="1">
          <mxGeometry x="1600" y="330" width="40" height="40" as="geometry" />
        </mxCell>
        <mxCell id="rIGNumGmygnHjvv-tgh9-73" style="edgeStyle=orthogonalEdgeStyle;rounded=0;orthogonalLoop=1;jettySize=auto;html=1;exitX=0.5;exitY=1;exitDx=0;exitDy=0;entryX=0.5;entryY=0;entryDx=0;entryDy=0;" edge="1" parent="1" source="rIGNumGmygnHjvv-tgh9-67" target="rIGNumGmygnHjvv-tgh9-72">
          <mxGeometry relative="1" as="geometry" />
        </mxCell>
        <mxCell id="rIGNumGmygnHjvv-tgh9-67" value="Init&lt;div&gt;Val&lt;/div&gt;" style="ellipse;whiteSpace=wrap;html=1;" vertex="1" parent="1">
          <mxGeometry x="1640" y="330" width="40" height="40" as="geometry" />
        </mxCell>
        <mxCell id="rIGNumGmygnHjvv-tgh9-72" value="&lt;span style=&quot;background-color: transparent; color: light-dark(rgb(0, 0, 0), rgb(255, 255, 255));&quot;&gt;.2&lt;/span&gt;" style="rounded=1;whiteSpace=wrap;html=1;align=left;fillColor=#fff2cc;strokeColor=#d6b656;" vertex="1" parent="1">
          <mxGeometry x="1640" y="400" width="40" height="40" as="geometry" />
        </mxCell>
      </root>
    </mxGraphModel>
  </diagram>
</mxfile>
